<mxfile host="Electron" agent="Mozilla/5.0 (Windows NT 10.0; Win64; x64) AppleWebKit/537.36 (KHTML, like Gecko) draw.io/27.0.5 Chrome/134.0.6998.205 Electron/35.3.0 Safari/537.36" version="27.0.5">
  <diagram name="Page-1" id="a-0GFclCp6H3AJ5fKgZJ">
    <mxGraphModel dx="1281" dy="722" grid="0" gridSize="10" guides="1" tooltips="1" connect="1" arrows="1" fold="1" page="1" pageScale="1" pageWidth="1169" pageHeight="827" math="0" shadow="0">
      <root>
        <mxCell id="0" />
        <mxCell id="1" parent="0" />
        <mxCell id="DziEMJ2fXzBLOX93jEA4-1" value="" style="ellipse;whiteSpace=wrap;html=1;shadow=1;fillColor=#FF0042;strokeColor=#b85450;" parent="1" vertex="1">
          <mxGeometry x="467" y="275" width="200" height="86" as="geometry" />
        </mxCell>
        <mxCell id="DziEMJ2fXzBLOX93jEA4-2" value="" style="endArrow=none;html=1;rounded=0;entryX=1;entryY=0.5;entryDx=0;entryDy=0;" parent="1" target="DziEMJ2fXzBLOX93jEA4-1" edge="1">
          <mxGeometry width="50" height="50" relative="1" as="geometry">
            <mxPoint x="467" y="317" as="sourcePoint" />
            <mxPoint x="517" y="267" as="targetPoint" />
          </mxGeometry>
        </mxCell>
        <mxCell id="DziEMJ2fXzBLOX93jEA4-3" value="&lt;font&gt;Trade_Value&lt;/font&gt;" style="text;html=1;align=center;verticalAlign=middle;whiteSpace=wrap;rounded=0;" parent="1" vertex="1">
          <mxGeometry x="531.5" y="324" width="71" height="30" as="geometry" />
        </mxCell>
        <mxCell id="DziEMJ2fXzBLOX93jEA4-6" value="" style="swimlane;startSize=0;" parent="1" vertex="1">
          <mxGeometry x="467" y="275" width="200" height="86" as="geometry" />
        </mxCell>
        <mxCell id="DziEMJ2fXzBLOX93jEA4-33" value="&lt;h1&gt;&lt;font style=&quot;font-size: 15px;&quot;&gt;Bilateral_Trade&lt;/font&gt;&lt;/h1&gt;" style="text;html=1;align=center;verticalAlign=middle;whiteSpace=wrap;rounded=0;" parent="DziEMJ2fXzBLOX93jEA4-6" vertex="1">
          <mxGeometry x="46" y="7" width="108" height="30" as="geometry" />
        </mxCell>
        <mxCell id="DziEMJ2fXzBLOX93jEA4-8" value="&lt;font style=&quot;font-size: 15px;&quot;&gt;&lt;b&gt;Country&lt;/b&gt;&lt;/font&gt;" style="swimlane;fontStyle=0;childLayout=stackLayout;horizontal=1;startSize=30;horizontalStack=0;resizeParent=1;resizeParentMax=0;resizeLast=0;collapsible=1;marginBottom=0;whiteSpace=wrap;html=1;shadow=1;fillColor=#A0A0A4;strokeColor=#000000;" parent="1" vertex="1">
          <mxGeometry x="969" y="130" width="140" height="150" as="geometry">
            <mxRectangle x="967" y="39" width="93" height="30" as="alternateBounds" />
          </mxGeometry>
        </mxCell>
        <mxCell id="DziEMJ2fXzBLOX93jEA4-9" value="&lt;u&gt;&lt;b&gt;&lt;font style=&quot;font-size: 13px;&quot;&gt;id_Country&lt;/font&gt;&lt;/b&gt;&lt;/u&gt;" style="text;strokeColor=none;fillColor=light-dark(#E1E1E1,#E1E1E1);align=left;verticalAlign=middle;spacingLeft=4;spacingRight=4;overflow=hidden;points=[[0,0.5],[1,0.5]];portConstraint=eastwest;rotatable=0;whiteSpace=wrap;html=1;fontColor=light-dark(#000000, #121212);" parent="DziEMJ2fXzBLOX93jEA4-8" vertex="1">
          <mxGeometry y="30" width="140" height="30" as="geometry" />
        </mxCell>
        <mxCell id="DziEMJ2fXzBLOX93jEA4-10" value="Country" style="text;strokeColor=none;fillColor=light-dark(#E1E1E1,#E1E1E1);align=left;verticalAlign=middle;spacingLeft=4;spacingRight=4;overflow=hidden;points=[[0,0.5],[1,0.5]];portConstraint=eastwest;rotatable=0;whiteSpace=wrap;html=1;fontColor=light-dark(#000000, #121212);" parent="DziEMJ2fXzBLOX93jEA4-8" vertex="1">
          <mxGeometry y="60" width="140" height="30" as="geometry" />
        </mxCell>
        <mxCell id="DziEMJ2fXzBLOX93jEA4-11" value="ISO2" style="text;strokeColor=none;fillColor=light-dark(#E1E1E1,#E1E1E1);align=left;verticalAlign=middle;spacingLeft=4;spacingRight=4;overflow=hidden;points=[[0,0.5],[1,0.5]];portConstraint=eastwest;rotatable=0;whiteSpace=wrap;html=1;fontColor=light-dark(#000000, #121212);" parent="DziEMJ2fXzBLOX93jEA4-8" vertex="1">
          <mxGeometry y="90" width="140" height="30" as="geometry" />
        </mxCell>
        <mxCell id="DziEMJ2fXzBLOX93jEA4-12" value="ISO3" style="text;strokeColor=none;fillColor=light-dark(#E1E1E1,#E1E1E1);align=left;verticalAlign=middle;spacingLeft=4;spacingRight=4;overflow=hidden;points=[[0,0.5],[1,0.5]];portConstraint=eastwest;rotatable=0;whiteSpace=wrap;html=1;fontColor=light-dark(#000000, #121212);" parent="DziEMJ2fXzBLOX93jEA4-8" vertex="1">
          <mxGeometry y="120" width="140" height="30" as="geometry" />
        </mxCell>
        <mxCell id="DziEMJ2fXzBLOX93jEA4-14" value="&lt;b&gt;&lt;font style=&quot;font-size: 15px;&quot;&gt;CTS&lt;/font&gt;&lt;/b&gt;" style="swimlane;fontStyle=0;childLayout=stackLayout;horizontal=1;startSize=30;horizontalStack=0;resizeParent=1;resizeParentMax=0;resizeLast=0;collapsible=1;marginBottom=0;whiteSpace=wrap;html=1;shadow=1;fillColor=#A0A0A4;strokeColor=#000000;" parent="1" vertex="1">
          <mxGeometry x="75" y="50" width="140" height="150" as="geometry" />
        </mxCell>
        <mxCell id="DziEMJ2fXzBLOX93jEA4-15" value="&lt;u&gt;&lt;b&gt;&lt;font style=&quot;font-size: 13px;&quot;&gt;id_CTS&lt;/font&gt;&lt;/b&gt;&lt;/u&gt;" style="text;strokeColor=none;fillColor=light-dark(#E1E1E1,#E1E1E1);align=left;verticalAlign=middle;spacingLeft=4;spacingRight=4;overflow=hidden;points=[[0,0.5],[1,0.5]];portConstraint=eastwest;rotatable=0;whiteSpace=wrap;html=1;fontColor=light-dark(#000000, #121212);" parent="DziEMJ2fXzBLOX93jEA4-14" vertex="1">
          <mxGeometry y="30" width="140" height="30" as="geometry" />
        </mxCell>
        <mxCell id="DziEMJ2fXzBLOX93jEA4-16" value="CTS_Code" style="text;strokeColor=none;fillColor=light-dark(#E1E1E1,#E1E1E1);align=left;verticalAlign=middle;spacingLeft=4;spacingRight=4;overflow=hidden;points=[[0,0.5],[1,0.5]];portConstraint=eastwest;rotatable=0;whiteSpace=wrap;html=1;fontColor=light-dark(#000000, #121212);" parent="DziEMJ2fXzBLOX93jEA4-14" vertex="1">
          <mxGeometry y="60" width="140" height="30" as="geometry" />
        </mxCell>
        <mxCell id="DziEMJ2fXzBLOX93jEA4-17" value="CTS_Name" style="text;strokeColor=none;fillColor=light-dark(#E1E1E1,#E1E1E1);align=left;verticalAlign=middle;spacingLeft=4;spacingRight=4;overflow=hidden;points=[[0,0.5],[1,0.5]];portConstraint=eastwest;rotatable=0;whiteSpace=wrap;html=1;fontColor=light-dark(#000000, #121212);" parent="DziEMJ2fXzBLOX93jEA4-14" vertex="1">
          <mxGeometry y="90" width="140" height="30" as="geometry" />
        </mxCell>
        <mxCell id="DziEMJ2fXzBLOX93jEA4-18" value="CTS_Full_Descriptor" style="text;strokeColor=none;fillColor=light-dark(#E1E1E1,#E1E1E1);align=left;verticalAlign=middle;spacingLeft=4;spacingRight=4;overflow=hidden;points=[[0,0.5],[1,0.5]];portConstraint=eastwest;rotatable=0;whiteSpace=wrap;html=1;fontColor=light-dark(#000000, #121212);" parent="DziEMJ2fXzBLOX93jEA4-14" vertex="1">
          <mxGeometry y="120" width="140" height="30" as="geometry" />
        </mxCell>
        <mxCell id="DziEMJ2fXzBLOX93jEA4-19" value="&lt;font style=&quot;font-size: 15px;&quot;&gt;&lt;b&gt;Indicator&lt;/b&gt;&lt;/font&gt;" style="swimlane;fontStyle=0;childLayout=stackLayout;horizontal=1;startSize=30;horizontalStack=0;resizeParent=1;resizeParentMax=0;resizeLast=0;collapsible=1;marginBottom=0;whiteSpace=wrap;html=1;shadow=1;fillColor=#A0A0A4;strokeColor=#000000;" parent="1" vertex="1">
          <mxGeometry x="75" y="608" width="140" height="180" as="geometry" />
        </mxCell>
        <mxCell id="DziEMJ2fXzBLOX93jEA4-20" value="&lt;font style=&quot;font-size: 13px;&quot;&gt;&lt;b style=&quot;&quot;&gt;&lt;u&gt;id_Indicator&lt;/u&gt;&lt;/b&gt;&lt;/font&gt;" style="text;strokeColor=none;fillColor=light-dark(#E1E1E1,#E1E1E1);align=left;verticalAlign=middle;spacingLeft=4;spacingRight=4;overflow=hidden;points=[[0,0.5],[1,0.5]];portConstraint=eastwest;rotatable=0;whiteSpace=wrap;html=1;fontColor=light-dark(#000000, #121212);" parent="DziEMJ2fXzBLOX93jEA4-19" vertex="1">
          <mxGeometry y="30" width="140" height="30" as="geometry" />
        </mxCell>
        <mxCell id="DziEMJ2fXzBLOX93jEA4-21" value="Indicator" style="text;strokeColor=none;fillColor=light-dark(#E1E1E1,#E1E1E1);align=left;verticalAlign=middle;spacingLeft=4;spacingRight=4;overflow=hidden;points=[[0,0.5],[1,0.5]];portConstraint=eastwest;rotatable=0;whiteSpace=wrap;html=1;fontColor=light-dark(#000000, #121212);" parent="DziEMJ2fXzBLOX93jEA4-19" vertex="1">
          <mxGeometry y="60" width="140" height="30" as="geometry" />
        </mxCell>
        <mxCell id="DziEMJ2fXzBLOX93jEA4-22" value="Source" style="text;strokeColor=none;fillColor=light-dark(#E1E1E1,#E1E1E1);align=left;verticalAlign=middle;spacingLeft=4;spacingRight=4;overflow=hidden;points=[[0,0.5],[1,0.5]];portConstraint=eastwest;rotatable=0;whiteSpace=wrap;html=1;fontColor=light-dark(#000000, #121212);" parent="DziEMJ2fXzBLOX93jEA4-19" vertex="1">
          <mxGeometry y="90" width="140" height="30" as="geometry" />
        </mxCell>
        <mxCell id="DziEMJ2fXzBLOX93jEA4-23" value="Units" style="text;strokeColor=none;fillColor=light-dark(#E1E1E1,#E1E1E1);align=left;verticalAlign=middle;spacingLeft=4;spacingRight=4;overflow=hidden;points=[[0,0.5],[1,0.5]];portConstraint=eastwest;rotatable=0;whiteSpace=wrap;html=1;fontColor=light-dark(#000000, #121212);" parent="DziEMJ2fXzBLOX93jEA4-19" vertex="1">
          <mxGeometry y="120" width="140" height="30" as="geometry" />
        </mxCell>
        <mxCell id="I450GfjI9cVg0r6feRrF-2" value="Scale" style="text;strokeColor=none;fillColor=light-dark(#E1E1E1,#E1E1E1);align=left;verticalAlign=middle;spacingLeft=4;spacingRight=4;overflow=hidden;points=[[0,0.5],[1,0.5]];portConstraint=eastwest;rotatable=0;whiteSpace=wrap;html=1;fontColor=light-dark(#000000, #121212);" parent="DziEMJ2fXzBLOX93jEA4-19" vertex="1">
          <mxGeometry y="150" width="140" height="30" as="geometry" />
        </mxCell>
        <mxCell id="DziEMJ2fXzBLOX93jEA4-25" value="&lt;font style=&quot;font-size: 15px;&quot;&gt;&lt;b&gt;Trade_Flow&lt;/b&gt;&lt;/font&gt;" style="swimlane;fontStyle=0;childLayout=stackLayout;horizontal=1;startSize=30;horizontalStack=0;resizeParent=1;resizeParentMax=0;resizeLast=0;collapsible=1;marginBottom=0;whiteSpace=wrap;html=1;shadow=1;fillColor=#A0A0A4;strokeColor=#000000;" parent="1" vertex="1">
          <mxGeometry x="75" y="251" width="140" height="90" as="geometry" />
        </mxCell>
        <mxCell id="DziEMJ2fXzBLOX93jEA4-26" value="&lt;font style=&quot;font-size: 13px;&quot;&gt;&lt;b&gt;&lt;u&gt;id_Trade&lt;/u&gt;&lt;/b&gt;&lt;/font&gt;" style="text;strokeColor=none;fillColor=light-dark(#E1E1E1,#E1E1E1);align=left;verticalAlign=middle;spacingLeft=4;spacingRight=4;overflow=hidden;points=[[0,0.5],[1,0.5]];portConstraint=eastwest;rotatable=0;whiteSpace=wrap;html=1;fontColor=light-dark(#000000, #121212);" parent="DziEMJ2fXzBLOX93jEA4-25" vertex="1">
          <mxGeometry y="30" width="140" height="30" as="geometry" />
        </mxCell>
        <mxCell id="DziEMJ2fXzBLOX93jEA4-27" value="Trade_Flow" style="text;strokeColor=none;fillColor=light-dark(#E1E1E1,#E1E1E1);align=left;verticalAlign=middle;spacingLeft=4;spacingRight=4;overflow=hidden;points=[[0,0.5],[1,0.5]];portConstraint=eastwest;rotatable=0;whiteSpace=wrap;html=1;fontColor=light-dark(#000000, #121212);" parent="DziEMJ2fXzBLOX93jEA4-25" vertex="1">
          <mxGeometry y="60" width="140" height="30" as="geometry" />
        </mxCell>
        <mxCell id="DziEMJ2fXzBLOX93jEA4-29" value="&lt;b&gt;&lt;font style=&quot;font-size: 15px;&quot;&gt;Year&lt;/font&gt;&lt;/b&gt;" style="swimlane;fontStyle=0;childLayout=stackLayout;horizontal=1;startSize=30;horizontalStack=0;resizeParent=1;resizeParentMax=0;resizeLast=0;collapsible=1;marginBottom=0;whiteSpace=wrap;html=1;shadow=1;fillColor=#A0A0A4;strokeColor=#000000;" parent="1" vertex="1">
          <mxGeometry x="75" y="437" width="140" height="90" as="geometry" />
        </mxCell>
        <mxCell id="DziEMJ2fXzBLOX93jEA4-30" value="&lt;font style=&quot;font-size: 13px;&quot;&gt;&lt;b&gt;&lt;u&gt;id_Year&lt;/u&gt;&lt;/b&gt;&lt;/font&gt;" style="text;strokeColor=none;fillColor=light-dark(#E1E1E1,#E1E1E1);align=left;verticalAlign=middle;spacingLeft=4;spacingRight=4;overflow=hidden;points=[[0,0.5],[1,0.5]];portConstraint=eastwest;rotatable=0;whiteSpace=wrap;html=1;fontColor=light-dark(#000000, #121212);" parent="DziEMJ2fXzBLOX93jEA4-29" vertex="1">
          <mxGeometry y="30" width="140" height="30" as="geometry" />
        </mxCell>
        <mxCell id="DziEMJ2fXzBLOX93jEA4-31" value="Year" style="text;strokeColor=none;fillColor=light-dark(#E1E1E1,#E1E1E1);align=left;verticalAlign=middle;spacingLeft=4;spacingRight=4;overflow=hidden;points=[[0,0.5],[1,0.5]];portConstraint=eastwest;rotatable=0;whiteSpace=wrap;html=1;fontColor=light-dark(#000000, #121212);" parent="DziEMJ2fXzBLOX93jEA4-29" vertex="1">
          <mxGeometry y="60" width="140" height="30" as="geometry" />
        </mxCell>
        <mxCell id="DziEMJ2fXzBLOX93jEA4-37" value="" style="endArrow=none;html=1;rounded=0;entryX=0;entryY=0.5;entryDx=0;entryDy=0;fillColor=#e51400;strokeColor=#FF0000;" parent="1" target="DziEMJ2fXzBLOX93jEA4-6" edge="1">
          <mxGeometry width="50" height="50" relative="1" as="geometry">
            <mxPoint x="215" y="318" as="sourcePoint" />
            <mxPoint x="265" y="268" as="targetPoint" />
          </mxGeometry>
        </mxCell>
        <mxCell id="DziEMJ2fXzBLOX93jEA4-38" value="" style="endArrow=none;html=1;rounded=0;entryX=0;entryY=0.5;entryDx=0;entryDy=0;fillColor=#e51400;strokeColor=#FF0000;exitX=1;exitY=0.5;exitDx=0;exitDy=0;" parent="1" source="DziEMJ2fXzBLOX93jEA4-30" target="DziEMJ2fXzBLOX93jEA4-6" edge="1">
          <mxGeometry width="50" height="50" relative="1" as="geometry">
            <mxPoint x="215" y="515" as="sourcePoint" />
            <mxPoint x="265" y="465" as="targetPoint" />
          </mxGeometry>
        </mxCell>
        <mxCell id="DziEMJ2fXzBLOX93jEA4-39" value="" style="endArrow=none;html=1;rounded=0;curved=1;exitX=0.25;exitY=0;exitDx=0;exitDy=0;entryX=1;entryY=0.5;entryDx=0;entryDy=0;fillColor=#e51400;strokeColor=#FF0000;" parent="1" source="DziEMJ2fXzBLOX93jEA4-6" target="DziEMJ2fXzBLOX93jEA4-14" edge="1">
          <mxGeometry width="50" height="50" relative="1" as="geometry">
            <mxPoint x="535" y="266" as="sourcePoint" />
            <mxPoint x="585" y="216" as="targetPoint" />
          </mxGeometry>
        </mxCell>
        <mxCell id="DziEMJ2fXzBLOX93jEA4-43" value="" style="endArrow=none;html=1;rounded=0;curved=1;exitX=1;exitY=0.5;exitDx=0;exitDy=0;entryX=0.25;entryY=1;entryDx=0;entryDy=0;fillColor=#e51400;strokeColor=#FF0000;" parent="1" source="DziEMJ2fXzBLOX93jEA4-19" target="DziEMJ2fXzBLOX93jEA4-6" edge="1">
          <mxGeometry width="50" height="50" relative="1" as="geometry">
            <mxPoint x="535" y="522" as="sourcePoint" />
            <mxPoint x="617" y="502" as="targetPoint" />
          </mxGeometry>
        </mxCell>
        <mxCell id="DziEMJ2fXzBLOX93jEA4-46" value="&lt;font style=&quot;font-size: 16px;&quot;&gt;&lt;b&gt;1,n&lt;/b&gt;&lt;/font&gt;" style="text;html=1;align=center;verticalAlign=middle;whiteSpace=wrap;rounded=0;fontColor=#FF0000;" parent="1" vertex="1">
          <mxGeometry x="216" y="97" width="34" height="30" as="geometry" />
        </mxCell>
        <mxCell id="DziEMJ2fXzBLOX93jEA4-47" value="&lt;font style=&quot;font-size: 16px;&quot;&gt;&lt;b&gt;1,n&lt;/b&gt;&lt;/font&gt;" style="text;html=1;align=center;verticalAlign=middle;whiteSpace=wrap;rounded=0;fontColor=#FF0000;" parent="1" vertex="1">
          <mxGeometry x="219" y="287" width="34" height="30" as="geometry" />
        </mxCell>
        <mxCell id="DziEMJ2fXzBLOX93jEA4-49" value="&lt;font style=&quot;font-size: 16px;&quot;&gt;&lt;b&gt;1,n&lt;/b&gt;&lt;/font&gt;" style="text;html=1;align=center;verticalAlign=middle;whiteSpace=wrap;rounded=0;fontColor=#FF0000;" parent="1" vertex="1">
          <mxGeometry x="219" y="431" width="34" height="30" as="geometry" />
        </mxCell>
        <mxCell id="DziEMJ2fXzBLOX93jEA4-52" value="&lt;font style=&quot;font-size: 16px;&quot;&gt;&lt;b&gt;1,n&lt;/b&gt;&lt;/font&gt;" style="text;html=1;align=center;verticalAlign=middle;whiteSpace=wrap;rounded=0;fontColor=#FF0000;" parent="1" vertex="1">
          <mxGeometry x="219" y="637" width="34" height="30" as="geometry" />
        </mxCell>
        <mxCell id="DziEMJ2fXzBLOX93jEA4-54" value="&lt;font style=&quot;font-size: 16px;&quot;&gt;&lt;b&gt;1,n&lt;/b&gt;&lt;/font&gt;" style="text;html=1;align=center;verticalAlign=middle;whiteSpace=wrap;rounded=0;fontColor=#FF0000;" parent="1" vertex="1">
          <mxGeometry x="998" y="287" width="34" height="30" as="geometry" />
        </mxCell>
        <mxCell id="DziEMJ2fXzBLOX93jEA4-57" value="&lt;font style=&quot;font-size: 16px;&quot;&gt;&lt;b&gt;1,n&lt;/b&gt;&lt;/font&gt;" style="text;html=1;align=center;verticalAlign=middle;whiteSpace=wrap;rounded=0;fontColor=#FF0000;" parent="1" vertex="1">
          <mxGeometry x="926" y="170" width="34" height="30" as="geometry" />
        </mxCell>
        <mxCell id="DziEMJ2fXzBLOX93jEA4-58" value="" style="endArrow=none;html=1;rounded=0;elbow=vertical;entryX=0;entryY=0.5;entryDx=0;entryDy=0;exitX=0.75;exitY=0;exitDx=0;exitDy=0;fillColor=#e51400;strokeColor=#FF0000;" parent="1" source="DziEMJ2fXzBLOX93jEA4-6" target="DziEMJ2fXzBLOX93jEA4-10" edge="1">
          <mxGeometry width="50" height="50" relative="1" as="geometry">
            <mxPoint x="662" y="223" as="sourcePoint" />
            <mxPoint x="735" y="375" as="targetPoint" />
            <Array as="points">
              <mxPoint x="617" y="205" />
            </Array>
          </mxGeometry>
        </mxCell>
        <mxCell id="DziEMJ2fXzBLOX93jEA4-59" value="" style="endArrow=none;html=1;rounded=0;elbow=vertical;entryX=0.5;entryY=1;entryDx=0;entryDy=0;exitX=1;exitY=0.5;exitDx=0;exitDy=0;fillColor=#e51400;strokeColor=#FF0000;" parent="1" source="DziEMJ2fXzBLOX93jEA4-6" target="DziEMJ2fXzBLOX93jEA4-8" edge="1">
          <mxGeometry width="50" height="50" relative="1" as="geometry">
            <mxPoint x="685" y="430" as="sourcePoint" />
            <mxPoint x="988" y="430" as="targetPoint" />
            <Array as="points">
              <mxPoint x="1039" y="318" />
            </Array>
          </mxGeometry>
        </mxCell>
        <mxCell id="blyvKuEIATfr2L7U5BEh-2" value="" style="ellipse;whiteSpace=wrap;html=1;shadow=1;fillColor=#00FF00;strokeColor=#B09500;fontColor=#000000;" parent="1" vertex="1">
          <mxGeometry x="467.5" y="492" width="200" height="86" as="geometry" />
        </mxCell>
        <mxCell id="blyvKuEIATfr2L7U5BEh-3" value="&lt;span style=&quot;font-size: 15px;&quot;&gt;&lt;b&gt;Trade&lt;/b&gt;&lt;/span&gt;" style="text;html=1;align=center;verticalAlign=middle;whiteSpace=wrap;rounded=0;" parent="1" vertex="1">
          <mxGeometry x="513.5" y="503" width="108" height="30" as="geometry" />
        </mxCell>
        <mxCell id="blyvKuEIATfr2L7U5BEh-4" value="" style="endArrow=none;html=1;rounded=0;entryX=1;entryY=0.5;entryDx=0;entryDy=0;" parent="1" edge="1">
          <mxGeometry width="50" height="50" relative="1" as="geometry">
            <mxPoint x="466.5" y="534.47" as="sourcePoint" />
            <mxPoint x="666.5" y="535.47" as="targetPoint" />
          </mxGeometry>
        </mxCell>
        <mxCell id="blyvKuEIATfr2L7U5BEh-5" value="&lt;font&gt;Trade_Value&lt;/font&gt;" style="text;html=1;align=center;verticalAlign=middle;whiteSpace=wrap;rounded=0;" parent="1" vertex="1">
          <mxGeometry x="531.5" y="540" width="71" height="30" as="geometry" />
        </mxCell>
        <mxCell id="blyvKuEIATfr2L7U5BEh-7" value="" style="endArrow=none;html=1;rounded=0;exitX=1;exitY=0.5;exitDx=0;exitDy=0;entryX=0.25;entryY=0;entryDx=0;entryDy=0;fillColor=#e3c800;strokeColor=#00FF00;fontColor=#00FF00;" parent="1" source="DziEMJ2fXzBLOX93jEA4-16" target="lczaUUoL5BLcjO4p2BdJ-1" edge="1">
          <mxGeometry width="50" height="50" relative="1" as="geometry">
            <mxPoint x="551" y="399" as="sourcePoint" />
            <mxPoint x="601" y="349" as="targetPoint" />
          </mxGeometry>
        </mxCell>
        <mxCell id="blyvKuEIATfr2L7U5BEh-8" value="" style="endArrow=none;html=1;rounded=0;exitX=1;exitY=0.5;exitDx=0;exitDy=0;fillColor=#e3c800;strokeColor=#00FF00;fontColor=#00FF00;entryX=0;entryY=0.5;entryDx=0;entryDy=0;" parent="1" source="DziEMJ2fXzBLOX93jEA4-27" target="lczaUUoL5BLcjO4p2BdJ-1" edge="1">
          <mxGeometry width="50" height="50" relative="1" as="geometry">
            <mxPoint x="551" y="399" as="sourcePoint" />
            <mxPoint x="455" y="544" as="targetPoint" />
          </mxGeometry>
        </mxCell>
        <mxCell id="blyvKuEIATfr2L7U5BEh-10" value="" style="endArrow=none;html=1;rounded=0;entryX=0;entryY=0.5;entryDx=0;entryDy=0;exitX=1;exitY=0.75;exitDx=0;exitDy=0;fillColor=#e3c800;strokeColor=#00FF00;fontColor=#00FF00;" parent="1" source="DziEMJ2fXzBLOX93jEA4-29" target="lczaUUoL5BLcjO4p2BdJ-1" edge="1">
          <mxGeometry width="50" height="50" relative="1" as="geometry">
            <mxPoint x="271" y="529" as="sourcePoint" />
            <mxPoint x="321" y="479" as="targetPoint" />
          </mxGeometry>
        </mxCell>
        <mxCell id="blyvKuEIATfr2L7U5BEh-11" value="" style="endArrow=none;html=1;rounded=0;entryX=0.25;entryY=1;entryDx=0;entryDy=0;exitX=1;exitY=0.5;exitDx=0;exitDy=0;strokeColor=#00FF00;fontColor=#00FF00;" parent="1" source="DziEMJ2fXzBLOX93jEA4-19" target="lczaUUoL5BLcjO4p2BdJ-1" edge="1">
          <mxGeometry width="50" height="50" relative="1" as="geometry">
            <mxPoint x="286" y="684" as="sourcePoint" />
            <mxPoint x="336" y="634" as="targetPoint" />
          </mxGeometry>
        </mxCell>
        <mxCell id="blyvKuEIATfr2L7U5BEh-13" value="" style="endArrow=none;html=1;rounded=0;entryX=0.75;entryY=1;entryDx=0;entryDy=0;strokeColor=#00FF00;fontColor=#00FF00;exitX=1;exitY=0.5;exitDx=0;exitDy=0;" parent="1" source="blyvKuEIATfr2L7U5BEh-2" target="DziEMJ2fXzBLOX93jEA4-8" edge="1">
          <mxGeometry width="50" height="50" relative="1" as="geometry">
            <mxPoint x="689" y="525" as="sourcePoint" />
            <mxPoint x="1091" y="316" as="targetPoint" />
            <Array as="points">
              <mxPoint x="1073" y="535" />
            </Array>
          </mxGeometry>
        </mxCell>
        <mxCell id="blyvKuEIATfr2L7U5BEh-15" value="&lt;font style=&quot;font-size: 16px;&quot;&gt;&lt;b&gt;1,n&lt;/b&gt;&lt;/font&gt;" style="text;html=1;align=center;verticalAlign=middle;whiteSpace=wrap;rounded=0;fontColor=#00FF00;" parent="1" vertex="1">
          <mxGeometry x="219" y="166" width="34" height="30" as="geometry" />
        </mxCell>
        <mxCell id="blyvKuEIATfr2L7U5BEh-16" value="&lt;font style=&quot;font-size: 16px;&quot;&gt;&lt;b&gt;1,n&lt;/b&gt;&lt;/font&gt;" style="text;html=1;align=center;verticalAlign=middle;whiteSpace=wrap;rounded=0;fontColor=#00FF00;" parent="1" vertex="1">
          <mxGeometry x="216" y="357" width="34" height="30" as="geometry" />
        </mxCell>
        <mxCell id="blyvKuEIATfr2L7U5BEh-17" value="&lt;font style=&quot;font-size: 16px;&quot;&gt;&lt;b&gt;1,n&lt;/b&gt;&lt;/font&gt;" style="text;html=1;align=center;verticalAlign=middle;whiteSpace=wrap;rounded=0;fontColor=#00FF00;" parent="1" vertex="1">
          <mxGeometry x="219" y="506" width="34" height="30" as="geometry" />
        </mxCell>
        <mxCell id="blyvKuEIATfr2L7U5BEh-18" value="&lt;font style=&quot;font-size: 16px;&quot;&gt;&lt;b&gt;1,n&lt;/b&gt;&lt;/font&gt;" style="text;html=1;align=center;verticalAlign=middle;whiteSpace=wrap;rounded=0;fontColor=#00FF00;" parent="1" vertex="1">
          <mxGeometry x="219" y="702" width="34" height="30" as="geometry" />
        </mxCell>
        <mxCell id="blyvKuEIATfr2L7U5BEh-19" value="&lt;font style=&quot;font-size: 16px;&quot;&gt;&lt;b&gt;1,n&lt;/b&gt;&lt;/font&gt;" style="text;html=1;align=center;verticalAlign=middle;whiteSpace=wrap;rounded=0;fontColor=#00FF00;" parent="1" vertex="1">
          <mxGeometry x="1082" y="287" width="34" height="30" as="geometry" />
        </mxCell>
        <mxCell id="lczaUUoL5BLcjO4p2BdJ-1" value="" style="swimlane;startSize=0;" parent="1" vertex="1">
          <mxGeometry x="467.5" y="492" width="200" height="86" as="geometry" />
        </mxCell>
        <mxCell id="MhBWgS3ZwzfCVxWfvs8p-1" value="&lt;strong data-start=&quot;677&quot; data-end=&quot;695&quot;&gt;&lt;font style=&quot;font-size: 14px;&quot;&gt;&lt;span style=&quot;&quot; class=&quot;_fadeIn_m1hgl_8&quot;&gt;À&amp;nbsp;&lt;/span&gt;&lt;span style=&quot;&quot; class=&quot;_fadeIn_m1hgl_8&quot;&gt;exporté &lt;/span&gt;&lt;span style=&quot;&quot; class=&quot;_fadeIn_m1hgl_8&quot;&gt;vers&lt;/span&gt;&lt;/font&gt;&lt;/strong&gt;&lt;span class=&quot;_fadeIn_m1hgl_8&quot;&gt; &lt;/span&gt;" style="text;whiteSpace=wrap;html=1;" parent="1" vertex="1">
          <mxGeometry x="714" y="175" width="101" height="27" as="geometry" />
        </mxCell>
        <mxCell id="MhBWgS3ZwzfCVxWfvs8p-2" value="&lt;font style=&quot;font-size: 14px;&quot;&gt;&lt;b&gt;&lt;span style=&quot;&quot; class=&quot;_fadeIn_m1hgl_8&quot;&gt;À&amp;nbsp;&lt;/span&gt;&lt;span style=&quot;&quot; class=&quot;_fadeIn_m1hgl_8&quot;&gt;été &lt;/span&gt;&lt;span style=&quot;&quot; class=&quot;_fadeIn_m1hgl_8&quot;&gt;importé &lt;/span&gt;&lt;span style=&quot;&quot; class=&quot;_fadeIn_m1hgl_8&quot;&gt;par&lt;/span&gt;&lt;/b&gt;&lt;/font&gt;" style="text;whiteSpace=wrap;html=1;" parent="1" vertex="1">
          <mxGeometry x="790" y="321" width="130" height="30" as="geometry" />
        </mxCell>
      </root>
    </mxGraphModel>
  </diagram>
</mxfile>
